<?xml version="1.0" encoding="UTF-8"?>
<svg id="Calque_2" data-name="Calque 2" xmlns="http://www.w3.org/2000/svg" xmlns:xlink="http://www.w3.org/1999/xlink" viewBox="0 0 90.92 97.91">
  <defs>
    <style>
      .cls-1 {
        fill: #d7e2d7;
        fill-rule: evenodd;
      }

      .cls-2 {
        fill: #f1852c;
      }

      .cls-3 {
        fill: #b0c6b3;
      }

      .cls-4 {
        fill: none;
      }

      .cls-5 {
        fill: #d45215;
      }

      .cls-6 {
        fill: #192116;
      }

      .cls-7 {
        fill: #eee7e5;
      }

      .cls-8 {
        fill: #3c3a32;
      }

      .cls-9 {
        clip-path: url(#clippath);
      }
    </style>
    <clipPath id="clippath">
      <path class="cls-4" d="M28.1,39.85l11.1,3.82c7.52,2.59,12.57,9.67,12.57,17.63v17.34c0,2.93-2.91,4.97-5.66,3.98l-22.36-8.05c-4.16-1.5-6.93-5.44-6.93-9.86v-16.82c0-5.84,5.75-9.95,11.28-8.04Z"/>
    </clipPath>
  </defs>
  <g id="Calque_1-2" data-name="Calque 1">
    <g id="_3" data-name="3">
      <polygon class="cls-6" points="49.02 2.44 77.63 14.9 83.99 24.13 89.91 34.51 90.63 38.86 90.89 56.29 90.91 59.94 89.63 75.51 69.07 92.6 53.09 82.58 12.97 25.44 16.39 14.42 30.32 3.44 49.02 2.44"/>
      <path class="cls-6" d="M56.63,5.75c-18.18-8.52-20.04-7.76-33.74,3.49.11-.07.22-.13.34-.2.19-.11.38-.22.57-.33.2-.1.4-.2.61-.3,1.63-.82,3.46-1.6,5.46-2.23.5-.16,1.01-.31,1.52-.47.52-.13,1.05-.26,1.59-.39,1.07-.29,2.18-.45,3.31-.65,1.13-.18,2.29-.3,3.46-.42,1.18-.07,2.37-.18,3.57-.18,2.41-.07,4.85.06,7.29.27,2.16.19,3.91,1.04,6.02,1.4ZM20.62,11.1c.54-.34,1.1-.71,1.73-1.01.36-.19.74-.38,1.12-.58.19-.1.38-.2.58-.3.2-.09.41-.17.61-.26,1.64-.72,3.46-1.41,5.45-1.92.5-.13,1-.26,1.51-.39.52-.1,1.04-.2,1.57-.3,1.05-.23,2.15-.34,3.25-.48,1.11-.12,2.25-.19,3.39-.25,1.15-.01,2.31-.07,3.48,0,2.34.04,4.72.29,7.08.6,9.45,1.32,18.53,4.61,24.97,7.59.8.37,1.58.75,2.27,1.11.16.09.32.17.47.26,5.88,4.98,10.05,11.76,11.8,19.35-.67-.39-1.36-.8-2.09-1.22-1.54-.9-3.21-1.87-4.97-2.9-.89-.52-1.8-1.05-2.73-1.59-.92-.53-1.92-1.08-2.93-1.6-4.03-2.08-8.55-3.89-13.24-5.08-4.69-1.19-9.5-1.78-14.03-1.67-2.26.06-4.44.3-6.47.7-2.03.42-3.9,1.01-5.57,1.67-.82.37-1.62.69-2.34,1.1-.36.19-.71.38-1.05.56-.33.21-.65.41-.96.6-.63.37-1.17.79-1.68,1.16-.52.36-.96.74-1.35,1.08-.81.66-1.37,1.26-1.76,1.66-.39.4-.6.61-.6.61,0,0,.22-.2.63-.58.41-.38,1-.94,1.83-1.56.4-.33.86-.68,1.39-1.01.52-.35,1.07-.73,1.71-1.07.31-.18.64-.36.97-.55.35-.16.7-.33,1.07-.5.72-.37,1.52-.64,2.34-.96,1.67-.57,3.52-1.06,5.51-1.36,2-.29,4.12-.42,6.32-.37,4.39.1,9.06.91,13.52,2.28,4.47,1.38,8.74,3.34,12.52,5.53.95.55,1.84,1.09,2.76,1.68.9.58,1.77,1.15,2.62,1.7,1.71,1.11,3.33,2.17,4.82,3.14,1.66,1.08,3.16,2.06,4.47,2.91.13,1.24.2,2.49.2,3.76,0,5.43.03,9.92.05,13.66l-35.88-16.29,35.9,19.94c.06,10.47-.03,13.63-1.28,15.58l-29.75-13.07,27.22,15.55c-1.43,1.16-7.17,5.81-12.38,10.04l-.81-.23.18.09-14.2-6.13h0s0,0,0,0h0s12.19,8.43,12.19,8.43c-3.67,2.98-6.56,5.32-6.58,5.34-5.41,4.85-5.1,3.27-51.87-13.56C5.59,79.07.23,71.45.23,62.92c0-38.67-3.9-32.62,20.39-51.82Z"/>
      <path class="cls-7" d="M23.57,24.92l18.65,6.42c12.65,4.36,21.13,16.26,21.13,29.63v4.38s0,20.39,0,20.39v4.38c0,4.92-4.88,8.36-9.52,6.69l-37.58-13.52c-6.99-2.51-11.65-9.14-11.65-16.57v-4.38s0-19.51,0-19.51v-4.38c0-9.82,9.67-16.72,18.96-13.52Z"/>
      <path class="cls-8" d="M47.55,83.31c.94,0,1.86-.29,2.66-.85,1.26-.88,1.98-2.27,1.98-3.81v-17.34c0-8.14-5.17-15.39-12.86-18.04l-11.1-3.82c-2.77-.95-5.72-.52-8.1,1.17-2.38,1.7-3.75,4.35-3.75,7.28v16.82c0,4.59,2.9,8.71,7.21,10.26l22.36,8.05c.52.19,1.06.28,1.59.28ZM27.96,40.26l11.1,3.82c7.35,2.53,12.28,9.45,12.28,17.22v17.34c0,1.25-.59,2.39-1.62,3.11-1.03.72-2.29.89-3.47.47l-22.36-8.05c-3.97-1.43-6.65-5.23-6.65-9.45v-16.82c0-2.64,1.23-5.04,3.39-6.58,2.15-1.54,4.82-1.92,7.32-1.06h0Z"/>
      <g>
        <path class="cls-3" d="M51.75,76.02s2.35,7.76-9.47,2.45c-10.36-4.66-7.08-8.05-6.71-8.5.37-.45,2.63-1.06,2.63-1.06l13.55,7.11Z"/>
        <path class="cls-1" d="M40.42,75.66l-.57,1.28s-8.24-1.36-12.94-3.9c-1.17-.63-2.14-1.35-2.75-2.15-2.89-3.81-1.32-7.43,1.76-8.04,3.22-.64,5.19-3.82,10.44-.96,5.61,3.05,6.73,8.46,6.17,8.76-.56.3-2.11,5.01-2.11,5.01Z"/>
        <path class="cls-3" d="M17.68,63.35c.36-5.33,2.17-8.03,4.68-9.22,2.6-1.23,8.26-4.34,11.07.03,2.91,4.53,8.07,7.73,3.51,10.38-4.32,2.51-9.18,8.22-9.18,8.22l-.86.27s-9.71-2.37-9.22-9.69Z"/>
        <path class="cls-1" d="M19.82,62.12l-1.89-.89s-2.53-14.21.1-16.89c2.73-2.78,9.73,9.43,9.73,9.43l-7.94,8.34Z"/>
      </g>
      <g class="cls-9">
        <g>
          <g>
            <path class="cls-5" d="M46.13,38.43c4.9,1.81,8.76,3.33,8.81,3.62.13.8,8.97,21.69,8.97,21.69l-9.64,11.11s-3.88,2.45-6.47-.36c.39-3.04,1.72-8.6,6.25-15.2l-2.12-1.46c-4.54,6.61-6.09,12.26-6.61,15.71-2.43-.68-4.58-2.31-5.83-4.31,1.06-4.74,4.32-16.57,11.07-20l-1.16-2.3c-6.38,3.24-9.88,12.3-11.56,18.28-3.6-1.77-5.6-3.52-6.69-5.01,1.32-5.95,5.17-18.2,14.98-21.79Z"/>
            <path class="cls-5" d="M25.48,31.06s2.87.99,6.81,2.39c-5.87,2.8-9.07,8.61-10.61,12.46-10.33-7.02,3.8-14.84,3.8-14.84Z"/>
            <path class="cls-5" d="M36.14,34.81c2.12.76,4.37,1.56,6.54,2.35-7.44,4.03-11.22,12.41-13.07,18.6-1.21-.62-4.78-2.73-6.31-6.71,1.03-3.23,4.59-12.24,12.83-14.23Z"/>
          </g>
          <g>
            <path class="cls-2" d="M51.92,57.83l2.12,1.46c-4.53,6.59-5.86,12.16-6.25,15.2-.16-.18-.33-.38-.48-.6-.68-.04-1.35-.16-2-.34.52-3.45,2.06-9.09,6.61-15.71Z"/>
            <path class="cls-2" d="M42.68,37.16c1.18.43,2.34.85,3.45,1.26-9.81,3.59-13.67,15.84-14.98,21.79-1.81-2.48-1.11-4.25-1.11-4.25,0,0-.16-.07-.42-.21,1.84-6.18,5.63-14.56,13.07-18.6Z"/>
            <path class="cls-2" d="M22.67,46.54c-.35-.21-.68-.42-.99-.63,1.55-3.85,4.74-9.66,10.61-12.46,1.2.42,2.5.88,3.84,1.36-8.25,1.99-11.81,11-12.83,14.23-.3-.77-.52-1.6-.63-2.51Z"/>
            <path class="cls-2" d="M38.33,65.47c-.18-.08-.34-.17-.5-.25,1.68-5.99,5.19-15.05,11.56-18.28l1.16,2.3c-6.76,3.43-10.02,15.26-11.07,20-.73-1.17-1.15-2.46-1.15-3.76Z"/>
          </g>
        </g>
      </g>
    </g>
  </g>
</svg>