<?xml version="1.0" encoding="UTF-8"?>
<svg id="Calque_2" data-name="Calque 2" xmlns="http://www.w3.org/2000/svg" viewBox="0 0 126.99 84.37">
  <defs>
    <style>
      .cls-1 {
        fill: #b6241a;
      }

      .cls-2 {
        fill: #eee7e5;
      }
    </style>
  </defs>
  <g id="Calque_1-2" data-name="Calque 1">
    <g id="_11" data-name="11">
      <g>
        <path class="cls-2" d="M77.18,81.68s-.05-.03-.08-.04l.07.05s0,0,0,0Z"/>
        <path class="cls-2" d="M1.09,30.07c-.07-.14-.11-.26-.13-.33.01.05.04.15.08.31l.05.02Z"/>
        <path class="cls-2" d="M.96,29.74c-.02-.07-.02-.07-.02-.07,0,0,0,.03.02.07Z"/>
        <path class="cls-2" d="M8.52,32.62s-.04,0-.07,0l.71.51c.67.52,1.12.8,1.12.8h0l59.52,42.5s27.1,11.62,43.73-2.17-14.2-46.45-29.23-54.55C69.28,11.62,48.1-2.28,18.06,8.72-6.51,17.71,3.91,28.86,8.52,32.62Z"/>
      </g>
      <path class="cls-1" d="M122.71,64.66c-.7.46-1.51,1.09-2.52,1.66-.5.29-1.03.6-1.59.93-.57.29-1.17.6-1.8.91-2.54,1.21-5.59,2.33-8.93,3.15-1.67.42-3.41.74-5.19,1.03-1.78.25-3.59.46-5.41.58-7.27.52-14.57-.12-19.98-.95-2.49-.38-4.57-.79-6.1-1.13-3.45-3.61-6.48-7.56-9.13-11.32,1.39-.16,3.11-.36,5.05-.62,5.36-.72,12.49-1.87,19.53-3.54,3.52-.83,7.02-1.81,10.26-2.9,1.62-.55,3.17-1.12,4.62-1.74,1.46-.6,2.81-1.24,4.04-1.89,1.23-.65,2.33-1.31,3.27-1.98.48-.31.9-.65,1.29-.97.39-.31.75-.6,1.04-.91.28-.28.53-.52.75-.74,1.66,2.51,3.28,5.07,4.86,7.65,2.26,3.69,4.42,7.48,6.37,11.37.13.25.25.51.37.77-.24.19-.51.4-.82.64ZM77.82,76.79c4.43,3.36,9.42,5.92,15.03,6.93,17.21,3.09,30.33-5.6,33.58-8.98,1.41-1.47-.23-4.91-.87-6.37,0-.01-.01-.03-.02-.05,0-.02-.01-.03-.02-.05-.61-1.39-1.26-2.75-1.92-4.11-.23.21-.48.44-.77.71-.67.52-1.44,1.25-2.41,1.92-.48.34-.99.71-1.54,1.09-.56.35-1.15.72-1.76,1.1-2.48,1.47-5.51,2.92-8.86,4.08-1.67.59-3.43,1.1-5.23,1.56-1.8.43-3.64.83-5.49,1.13-7.06,1.19-14.2,1.3-19.73,1.04ZM80.11,11.45c-6.32-3.86-13.05-6.78-20.02-8.66-1.93-.52-3.87-.94-5.82-1.31-.43.07-.88.16-1.34.26-.46.12-.94.25-1.44.38-.49.17-.99.36-1.51.54-.51.21-1.02.47-1.55.7-.52.27-1.03.58-1.55.87-.51.34-1.02.68-1.53,1.05-.49.41-1.01.77-1.48,1.22-.97.87-1.9,1.82-2.75,2.87-.86,1.03-1.65,2.15-2.38,3.29-.72,1.14-1.38,2.32-1.96,3.49-1.17,2.34-2.04,4.67-2.71,6.69-.58,1.8-.98,3.34-1.25,4.52,2.74.89,5.18,2.18,7.37,3.74.14-.17.28-.32.45-.51,1.04-1.16,2.55-2.77,4.43-4.57,3.77-3.61,9.14-8.01,15.11-11.05,1.48-.77,3.02-1.42,4.53-2.01,1.53-.54,3.05-1.02,4.56-1.34.75-.15,1.48-.32,2.22-.4.73-.1,1.44-.2,2.14-.22.7-.04,1.37-.08,2.03-.05.66.03,1.29,0,1.89.1.6.08,1.18.12,1.73.22.29.06.55.11.82.17ZM51.52,43.48c2.06,3.06,3.84,6.06,5.51,8.57.46.7.95,1.43,1.44,2.18.41,0,1.05,0,1.89,0,1.55,0,3.76-.04,6.42-.13,5.32-.18,12.42-.62,19.47-1.56,3.52-.47,7.03-1.08,10.29-1.84,1.63-.38,3.2-.78,4.66-1.25,1.47-.44,2.85-.94,4.09-1.46,1.25-.51,2.38-1.06,3.34-1.61.49-.26.93-.55,1.33-.82.41-.27.78-.51,1.09-.79.3-.25.57-.46.8-.66-4.12-6.21-8.54-12.12-13.46-17.47-1.48-.21-3.49-.2-5.83.15-5.17.74-11.87,3-18.4,5.74-6.54,2.73-12.94,5.9-17.71,8.36-1.95,1.02-3.63,1.9-4.94,2.59ZM5.76,28.13c2.17.29,4.98.07,8.51-.83.72-.18,1.43-.34,2.13-.48,0-.06,0-.1.01-.16.12-1.35.36-3.25.87-5.45.51-2.21,1.3-4.72,2.48-7.22.58-1.25,1.28-2.47,2.05-3.66.79-1.16,1.64-2.31,2.59-3.31.93-1.04,1.96-1.94,3-2.76.52-.41,1.07-.76,1.59-1.14.55-.33,1.08-.65,1.61-.96.55-.27,1.08-.54,1.61-.8.53-.24,1.07-.44,1.58-.65.51-.22,1.03-.35,1.52-.51.18-.06.36-.11.54-.17-2.84.08-5.67.3-8.49.65-4.15.51-7.96,1.68-11.33,3.27-.1.08-.2.15-.29.24-.36.29-.72.6-1.1.91-.38.3-.76.62-1.1,1.02-.35.38-.7.76-1.06,1.15l-.54.58-.48.67c-.32.44-.64.89-.96,1.35-.34.43-.57.97-.85,1.45-.26.5-.57.97-.8,1.49-.23.52-.45,1.04-.67,1.56-.24.51-.41,1.04-.58,1.58-.17.53-.35,1.05-.51,1.57-.24,1.07-.56,2.07-.7,3.07-.09.49-.17.97-.25,1.44-.05.47-.11.93-.16,1.36-.11.87-.13,1.68-.19,2.39-.01.71-.05,1.33-.03,1.84,0,.2,0,.37.01.53ZM3.89,27.7c0-.06,0-.11,0-.17,0-.55.08-1.21.13-1.97.1-.75.16-1.61.33-2.52.08-.46.16-.93.24-1.42.11-.49.22-.99.34-1.5.2-1.04.58-2.08.9-3.17.19-.53.41-1.07.62-1.61.21-.54.42-1.09.7-1.61.26-.53.52-1.05.79-1.58.27-.53.61-1,.91-1.5.33-.48.59-1.02.97-1.45.36-.44.71-.89,1.07-1.33l.53-.65.59-.57c.39-.37.77-.74,1.15-1.11.08-.09.18-.16.27-.24C.99,12.39-4.2,24.95,3.89,27.7ZM43.32,33.64c1.85,1.68,3.51,3.53,5.01,5.44.19-.07.39-.15.6-.24,1.45-.59,3.52-1.43,6-2.43,4.99-1.98,11.68-4.52,18.49-6.6,6.8-2.09,13.76-3.69,19.07-3.91,2.21-.11,4.12.05,5.57.36-1.05-1.13-2.13-2.24-3.23-3.32-4.26-4.17-8.86-7.8-13.72-10.87-.12-.02-.22-.05-.34-.06-.48-.06-.99-.12-1.54-.18-.54-.05-1.11-.04-1.7-.06-.59-.04-1.21.03-1.85.06-.64.02-1.29.12-1.96.22-.67.08-1.36.23-2.05.39-.7.13-1.4.36-2.11.58-1.42.43-2.86,1.03-4.29,1.68-1.42.7-2.85,1.45-4.22,2.32-5.54,3.42-10.41,8.12-13.79,11.89-1.69,1.89-3.02,3.54-3.93,4.72ZM19.21,26.33c3.67-.5,6.98-.42,9.96.12.4-1.29,1.02-3.1,1.89-5.17.89-2.09,2.03-4.47,3.48-6.84.73-1.18,1.53-2.36,2.4-3.5.88-1.13,1.82-2.23,2.83-3.23,1-1.02,2.08-1.92,3.19-2.73.54-.42,1.13-.75,1.68-1.12.57-.33,1.15-.63,1.71-.93.58-.25,1.14-.51,1.7-.73.57-.19,1.12-.39,1.67-.55.55-.13,1.08-.26,1.6-.39.35-.05.68-.1,1.01-.15C47.51.31,42.64-.04,37.78,0c-.3.1-.61.19-.93.3-.45.13-.91.33-1.38.52-.47.2-.97.37-1.45.63-.48.25-.99.48-1.49.76-.49.29-.99.6-1.51.9-.49.35-.99.7-1.49,1.06-.48.4-.98.78-1.45,1.21-.93.87-1.85,1.8-2.66,2.85-.83,1.02-1.55,2.15-2.22,3.29-.64,1.16-1.21,2.35-1.68,3.54-.94,2.39-1.52,4.76-1.86,6.82-.29,1.77-.41,3.28-.46,4.45Z"/>
    </g>
  </g>
</svg>